<?xml version="1.0" standalone="no"?>
<!DOCTYPE svg PUBLIC "-//W3C//DTD SVG 20010904//EN"
 "http://www.w3.org/TR/2001/REC-SVG-20010904/DTD/svg10.dtd">
<svg version="1.0" xmlns="http://www.w3.org/2000/svg"
 width="300.000000pt" height="211.000000pt" viewBox="0 0 300.000000 211.000000"
 preserveAspectRatio="xMidYMid meet">
<metadata>
Created by potrace 1.10, written by Peter Selinger 2001-2011
</metadata>
<g transform="translate(0.000000,211.000000) scale(0.100000,-0.100000)"
fill="#000000" stroke="none">
<path d="M702 1871 c-19 -60 -16 -66 35 -79 25 -7 52 -21 59 -30 8 -11 13 -12
14 -4 0 6 6 12 14 12 12 0 29 53 31 94 0 9 -105 46 -131 46 -6 0 -16 -17 -22
-39z m94 -1 c22 0 17 -38 -7 -50 -15 -9 -24 -8 -35 1 -26 21 -15 65 14 54 7
-3 20 -5 28 -5z"/>
<path d="M1822 1858 c3 -28 9 -35 43 -47 54 -18 69 -49 49 -98 -15 -35 -16
-35 -60 -29 -35 4 -44 3 -44 -9 0 -20 46 -30 76 -16 14 6 29 9 34 6 15 -9 22
15 10 30 -17 20 6 51 25 35 10 -8 18 -4 34 16 25 31 27 52 6 60 -8 4 -15 14
-15 24 0 21 -19 30 -63 30 -18 1 -43 7 -57 15 -37 21 -42 19 -38 -17z"/>
<path d="M2157 1813 c-21 -83 -21 -83 -1 -83 11 0 15 -6 11 -20 -5 -18 -3 -19
20 -6 22 11 35 10 89 -4 60 -16 65 -16 73 -1 16 31 33 123 25 130 -8 8 -172
51 -191 51 -5 0 -16 -30 -26 -67z m137 2 c32 0 26 -33 -11 -62 l-32 -25 -15
31 c-28 53 -13 96 23 67 7 -5 23 -10 35 -11z m-99 -15 c-4 -6 0 -21 9 -34 17
-27 13 -36 -15 -29 -26 7 -24 73 3 73 5 0 6 -5 3 -10z m143 -54 c0 -25 -22
-41 -40 -30 -7 5 27 54 37 54 2 0 3 -11 3 -24z"/>
<path d="M1070 1780 c0 -28 -3 -30 -35 -30 l-35 0 0 -120 0 -120 60 0 c42 0
60 -4 60 -13 0 -18 -81 -127 -95 -127 -6 0 -18 -12 -27 -27 -10 -16 -35 -48
-57 -73 -40 -45 -40 -45 -41 -17 0 20 7 31 25 39 31 14 32 28 2 28 -50 0 -76
-70 -39 -103 10 -10 26 -17 36 -17 25 0 56 19 56 34 0 7 16 34 36 60 20 26 37
53 38 59 4 23 71 117 84 117 8 0 12 -21 12 -70 l0 -70 -30 0 c-28 0 -30 -2
-30 -39 0 -22 5 -43 10 -46 6 -4 8 -10 6 -14 -6 -9 -75 -407 -86 -491 -10 -85
-46 -283 -71 -388 -23 -102 -24 -114 -2 -110 21 4 23 12 73 283 84 454 111
622 111 697 0 67 3 78 19 83 11 3 29 1 41 -5 17 -9 19 -17 13 -38 -4 -15 -7
-49 -6 -77 2 -52 63 -416 86 -517 7 -32 12 -59 10 -61 -2 -2 -19 -1 -37 1
l-35 4 25 44 c14 24 21 44 16 44 -20 0 -61 -59 -65 -93 l-4 -36 55 -3 54 -3
29 -175 c17 -96 34 -179 39 -185 25 -26 25 21 -2 175 -16 91 -29 171 -29 178
0 9 25 12 94 12 66 0 96 4 99 13 2 6 8 9 12 5 4 -4 -5 -57 -20 -119 -29 -123
-29 -123 30 -140 46 -13 50 -4 148 294 107 324 113 347 100 347 -14 0 -114
-283 -129 -368 -3 -13 -11 -34 -18 -45 -8 -12 -26 -59 -41 -105 -17 -49 -33
-82 -41 -82 -8 0 -14 -5 -14 -11 0 -5 -5 -7 -11 -3 -6 3 -7 9 -3 13 5 3 9 29
9 58 0 28 4 49 9 45 5 -3 7 2 3 11 -4 10 -2 17 4 17 7 0 9 13 5 35 -9 44 2 85
15 64 6 -10 9 -8 9 9 0 13 5 33 11 44 8 15 8 19 0 14 -6 -4 -11 -2 -11 3 0 6
5 11 10 11 7 0 8 13 4 34 -3 21 0 54 9 83 9 26 18 62 21 78 2 17 11 51 19 77
8 26 13 49 10 52 -3 2 14 2 36 -1 41 -6 48 1 42 40 0 4 4 7 9 7 6 0 10 10 10
23 0 18 2 19 10 7 8 -13 10 -12 10 3 0 9 5 17 10 17 6 0 10 -8 11 -17 0 -14 2
-15 6 -3 6 14 33 39 43 40 3 0 13 -21 24 -46 14 -35 25 -46 46 -51 24 -4 29
-11 34 -47 3 -22 5 -66 5 -96 -1 -30 -3 -142 -5 -249 -2 -107 -6 -202 -10
-210 -8 -18 -11 -27 -13 -40 0 -5 -10 -7 -20 -4 -22 5 -31 31 -31 85 0 20 -4
59 -10 85 -5 26 -14 128 -20 226 -5 98 -15 186 -21 195 -7 13 -9 -7 -5 -73 3
-49 11 -189 17 -310 7 -135 16 -223 23 -227 13 -9 63 -10 93 -2 l23 6 2 349
c2 192 2 349 2 349 -1 0 -17 -7 -37 -15 l-35 -14 -28 64 c-20 46 -34 65 -47
65 -14 0 -17 -5 -12 -20 6 -17 2 -20 -28 -20 -31 0 -34 2 -29 25 2 14 0 25 -5
25 -5 0 -15 -34 -22 -76 -12 -74 -13 -76 -39 -71 -15 2 -34 7 -43 11 -13 6
-19 -11 -38 -101 -12 -59 -27 -125 -33 -146 -11 -37 -11 -37 -30 -17 l-19 20
-29 -22 c-17 -12 -30 -25 -30 -30 0 -20 -30 -5 -42 22 -7 17 -16 30 -20 30 -5
0 -8 4 -8 9 0 17 -47 61 -64 61 -10 0 -23 -15 -32 -36 -8 -20 -17 -34 -19 -32
-11 10 -83 453 -75 456 6 2 10 21 10 43 0 37 -2 39 -30 39 l-30 0 0 70 c0 64
2 70 21 70 16 0 19 4 14 20 -6 18 0 19 77 22 l83 3 3 33 c2 18 12 42 23 53 24
24 24 54 0 78 -11 11 -21 30 -23 43 -3 21 -8 23 -70 26 -64 3 -67 4 -70 30 -3
27 -4 27 -85 30 l-83 3 0 -31z m99 -19 c9 -6 10 -11 2 -15 -14 -9 -51 2 -51
15 0 11 30 12 49 0z m211 -114 c0 -12 -8 -44 -19 -71 l-18 -48 -6 38 c-8 49
-9 112 -1 142 6 23 7 22 25 -8 11 -17 19 -40 19 -53z m-112 -14 l3 -83 -56 0
c-30 0 -55 5 -55 10 0 6 -7 10 -15 10 -8 0 -15 -5 -15 -11 0 -6 -19 -9 -47 -7
l-48 3 -3 69 c-2 38 -1 74 1 80 3 8 44 11 118 11 l114 0 3 -82z m106 -800 c4
-10 28 -56 55 -102 l48 -83 34 61 c18 33 36 61 40 61 3 0 11 -11 19 -24 10
-20 10 -34 -1 -82 l-14 -57 -110 2 c-70 2 -112 6 -117 14 -4 6 -10 40 -14 76
-5 52 -3 69 10 90 10 14 20 34 23 44 3 9 9 17 13 17 5 0 11 -8 14 -17z"/>
<path d="M483 1685 c-32 -14 -73 -76 -73 -111 0 -26 14 -7 25 33 6 20 23 45
38 57 26 20 45 21 260 27 l232 5 -225 2 c-173 1 -232 -2 -257 -13z"/>
<path d="M1512 1693 c48 -2 129 -2 180 0 51 1 12 3 -87 3 -99 0 -141 -2 -93
-3z"/>
<path d="M2028 1693 c23 -2 59 -2 80 0 20 2 1 4 -43 4 -44 0 -61 -2 -37 -4z"/>
<path d="M2445 1691 c75 -8 118 -28 130 -64 5 -12 11 -58 15 -102 l7 -80 1 86
c2 74 -1 90 -19 113 -33 41 -71 56 -141 55 l-63 -2 70 -6z"/>
<path d="M1647 1618 c-59 -62 -131 -228 -98 -228 6 0 11 8 11 18 0 22 51 121
92 178 36 50 53 58 103 48 l36 -6 -22 -24 c-18 -19 -20 -26 -9 -39 10 -12 10
-15 -4 -15 -13 0 -15 -8 -9 -47 8 -63 17 -72 11 -11 -5 42 -3 48 15 54 20 6
20 7 1 21 -19 14 -19 14 1 29 18 13 20 13 23 0 5 -24 19 -19 24 8 4 22 -1 26
-43 40 -72 24 -88 21 -132 -26z"/>
<path d="M523 1640 c-12 -5 -29 -24 -38 -42 l-17 -33 30 35 30 35 213 5 214 6
-205 1 c-113 1 -215 -2 -227 -7z"/>
<path d="M1498 1643 c23 -2 61 -2 85 0 23 2 4 4 -43 4 -47 0 -66 -2 -42 -4z"/>
<path d="M2222 1640 c305 -6 297 -3 308 -117 l7 -68 2 53 c1 64 -20 115 -55
131 -17 7 -104 10 -272 9 l-247 -2 257 -6z"/>
<path d="M1921 1586 c-7 -8 -13 -22 -15 -32 -2 -11 -12 -45 -21 -77 -9 -32
-15 -61 -12 -63 5 -5 44 90 49 120 3 19 33 45 41 36 3 -3 8 -15 11 -27 6 -20
4 -23 -19 -23 -14 0 -24 -4 -20 -10 3 -5 15 -6 28 -1 16 7 21 16 19 35 -6 56
50 12 73 -58 19 -60 19 -190 -1 -207 -8 -6 -14 -18 -14 -27 0 -8 -7 -24 -17
-34 -13 -15 -14 -18 -2 -18 22 0 39 21 39 46 0 13 5 26 10 29 17 11 12 231 -6
266 -25 48 -117 77 -143 45z"/>
<path d="M1840 1575 c-6 -8 -10 -18 -7 -22 3 -4 -5 -39 -18 -78 -24 -74 -20
-95 16 -95 17 0 19 8 19 79 0 44 5 83 10 86 12 8 13 45 1 45 -5 0 -14 -7 -21
-15z"/>
<path d="M415 1519 c-49 -16 -95 -31 -102 -33 -16 -6 33 -156 51 -156 7 0 40
9 73 21 57 19 64 19 92 4 l31 -15 -12 25 c-9 19 -19 25 -44 25 -18 0 -34 -4
-36 -9 -1 -5 -25 -11 -53 -13 -44 -3 -50 -1 -50 16 0 17 8 19 67 20 38 1 73 7
80 14 18 18 28 15 28 -8 0 -11 7 -20 15 -20 20 0 19 9 -6 91 -12 38 -26 69
-32 68 -7 -1 -52 -14 -102 -30z m92 -31 c0 -7 4 -20 7 -29 6 -13 -3 -20 -40
-33 -48 -16 -71 -13 -44 5 12 9 11 10 -3 5 -55 -18 -65 -18 -69 1 -3 14 9 23
57 40 70 25 91 28 92 11z"/>
<path d="M581 1493 c0 -24 1 -25 8 -8 7 19 20 20 192 25 l184 6 -192 2 -193 2
1 -27z"/>
<path d="M1437 1513 c18 -2 50 -2 70 0 21 2 7 4 -32 4 -38 0 -55 -2 -38 -4z"/>
<path d="M1682 1475 c-14 -29 -17 -42 -8 -39 11 4 40 74 33 81 -2 1 -13 -17
-25 -42z"/>
<path d="M2240 1513 c183 -4 188 -5 193 -46 3 -28 4 -26 5 11 l2 42 -172 -2
-173 -2 145 -3z"/>
<path d="M1940 1463 c-13 -19 -36 -48 -51 -64 -17 -19 -22 -29 -13 -29 8 0 14
-4 14 -10 0 -13 -6 -13 -31 0 -10 6 -19 8 -19 6 0 -3 14 -13 31 -22 l32 -16
-6 28 c-4 21 4 40 35 82 22 29 38 55 36 57 -2 2 -14 -12 -28 -32z"/>
<path d="M2454 1416 c-3 -9 -4 -32 -2 -50 2 -19 0 -32 -4 -30 -4 3 -8 -4 -8
-16 0 -11 6 -23 14 -26 9 -3 12 -12 8 -22 -6 -16 -4 -16 18 -1 19 12 34 14 73
7 27 -5 55 -7 62 -4 18 6 31 116 15 126 -7 4 -37 10 -68 14 -31 4 -66 9 -79
12 -16 4 -25 1 -29 -10z m133 -44 c6 -15 -34 -62 -52 -62 -13 0 -35 42 -35 65
0 19 80 16 87 -3z"/>
<path d="M693 1413 c48 -2 126 -2 175 0 48 1 8 3 -88 3 -96 0 -136 -2 -87 -3z"/>
<path d="M1323 1413 c26 -2 68 -2 95 0 26 2 4 3 -48 3 -52 0 -74 -1 -47 -3z"/>
<path d="M2240 1414 c82 -8 200 -8 200 -1 0 4 -53 6 -117 5 -65 -1 -102 -3
-83 -4z"/>
<path d="M1702 1398 c-9 -9 -5 -19 20 -45 l32 -33 -47 0 c-28 0 -47 -5 -47
-11 0 -8 18 -10 60 -5 55 6 60 5 60 -13 0 -11 5 -32 10 -46 10 -25 12 -26 33
-12 21 13 27 13 67 -9 46 -24 70 -30 70 -16 -1 4 -33 22 -73 40 -40 18 -92 50
-117 72 l-45 38 20 24 20 23 -21 -17 c-27 -23 -34 -23 -29 2 4 23 3 24 -13 8z"/>
<path d="M580 912 l0 -472 188 1 c115 0 179 4 167 9 -11 5 -89 9 -173 9 -85 0
-157 2 -160 6 -4 4 -8 209 -10 458 -1 248 -5 453 -7 455 -3 3 -5 -207 -5 -466z"/>
<path d="M1540 1367 c0 -9 5 -19 12 -23 17 -11 98 -12 98 -2 0 4 -17 8 -37 8
-20 0 -45 7 -55 17 -16 14 -18 15 -18 0z"/>
<path d="M848 1343 c-21 -8 -38 -19 -38 -25 0 -5 -4 -7 -9 -4 -5 3 -12 -2 -15
-12 -3 -9 -13 -28 -21 -42 -17 -29 -21 -150 -4 -150 5 0 8 -4 4 -9 -3 -6 4
-15 15 -21 21 -11 21 -11 4 22 -24 44 -23 116 2 158 25 44 62 70 121 86 46 12
46 13 13 13 -19 0 -52 -7 -72 -16z"/>
<path d="M472 864 c-2 -406 0 -462 14 -480 8 -10 12 -12 7 -4 -4 8 -10 224
-13 480 l-5 465 -3 -461z"/>
<path d="M410 863 c0 -266 4 -444 10 -453 6 -10 10 142 10 438 0 295 -3 452
-10 452 -7 0 -10 -152 -10 -437z"/>
<path d="M2096 1291 c-4 -5 3 -7 14 -4 22 6 43 -28 22 -35 -8 -2 -7 -8 3 -19
21 -20 19 -46 -2 -39 -10 3 -25 1 -33 -4 -11 -7 -7 -10 18 -10 20 0 35 6 39
15 5 14 8 14 29 0 29 -19 31 -11 4 22 -11 14 -20 34 -20 43 0 20 26 34 35 20
4 -7 13 -7 24 0 10 5 21 6 25 3 13 -13 5 -51 -14 -68 -23 -21 -27 -44 -4 -24
14 11 44 61 44 73 0 29 -83 49 -107 25 -8 -8 -17 -8 -31 0 -25 13 -39 14 -46
2z"/>
<path d="M2426 1264 c-3 -9 -6 -193 -6 -410 l0 -394 -177 -1 c-98 -1 -189 -5
-203 -9 -14 -5 65 -8 188 -9 l212 -1 0 420 c0 231 -2 420 -4 420 -2 0 -7 -7
-10 -16z"/>
<path d="M2525 883 c-4 -196 -5 -384 -2 -418 3 -33 2 -67 -3 -75 -8 -12 -54
-16 -257 -20 l-248 -6 243 -2 c230 -2 243 -1 262 18 19 19 20 33 20 440 0 231
-2 420 -4 420 -2 0 -7 -161 -11 -357z"/>
<path d="M2595 825 c0 -231 1 -324 2 -207 2 117 2 306 0 420 -1 114 -2 18 -2
-213z"/>
<path d="M1146 1113 c-4 -41 -4 -265 0 -498 6 -345 10 -425 21 -425 11 0 13
88 13 498 0 417 -2 499 -14 499 -10 0 -15 -21 -20 -74z"/>
<path d="M883 1155 c-31 -13 -63 -59 -63 -88 0 -18 69 -47 111 -47 16 0 45 7
64 14 44 19 47 53 8 95 -34 36 -77 45 -120 26z m103 -52 c21 -27 17 -39 -17
-53 -39 -16 -102 -3 -107 22 -2 10 8 29 23 42 22 20 31 23 57 16 16 -5 36 -17
44 -27z"/>
<path d="M1962 1147 c-8 -10 -6 -16 9 -26 12 -7 18 -19 15 -27 -3 -8 1 -14 9
-14 20 0 19 12 -3 36 -10 11 -17 25 -14 32 5 16 -3 15 -16 -1z"/>
<path d="M1620 1103 c0 -20 17 -50 24 -43 2 3 2 17 -1 33 -6 30 -23 37 -23 10z"/>
<path d="M1310 900 c8 -5 70 -10 138 -10 l122 0 0 -34 c0 -19 5 -38 11 -42 8
-4 9 1 4 15 -4 14 -1 31 9 46 9 13 16 27 16 30 0 3 -71 5 -157 5 -106 0 -153
-4 -143 -10z"/>
<path d="M2020 900 c8 -5 48 -10 88 -10 l72 0 0 -39 c0 -30 6 -44 23 -57 22
-16 22 -16 -11 -10 -28 5 -38 1 -64 -24 -35 -36 -44 -37 -59 -7 -15 28 -49 61
-56 54 -3 -3 14 -40 37 -82 46 -84 43 -84 86 -2 13 26 26 47 29 47 4 0 82
-130 90 -152 4 -10 -21 -12 -125 -10 -71 2 -130 -1 -130 -5 1 -29 21 -33 175
-34 l160 -2 0 172 0 171 -165 0 c-110 0 -160 -4 -150 -10z m251 -31 c18 -18
19 -23 6 -42 -18 -28 -40 -32 -61 -12 -20 21 -20 39 0 59 20 21 30 20 55 -5z
m36 -261 c-10 -24 -27 -23 -27 2 0 28 -41 111 -67 136 l-22 22 37 7 c20 4 45
13 56 21 21 14 21 13 26 -78 3 -51 1 -101 -3 -110z"/>
<path d="M838 883 c29 -2 74 -2 100 0 26 2 2 3 -53 3 -55 0 -76 -1 -47 -3z"/>
<path d="M818 843 c34 -2 88 -2 120 0 31 2 3 3 -63 3 -66 0 -92 -1 -57 -3z"/>
<path d="M1812 703 c-2 -124 0 -142 13 -137 11 5 12 10 6 18 -6 7 -12 68 -14
137 l-3 124 -2 -142z"/>
<path d="M833 793 c26 -2 68 -2 95 0 26 2 4 3 -48 3 -52 0 -74 -1 -47 -3z"/>
<path d="M780 723 c0 -5 30 -7 67 -5 119 5 131 9 31 10 -54 1 -98 -1 -98 -5z"/>
<path d="M780 683 c0 -5 30 -7 67 -5 119 5 131 9 31 10 -54 1 -98 -1 -98 -5z"/>
<path d="M760 638 c0 -4 44 -8 98 -7 53 0 93 2 87 4 -22 8 -185 11 -185 3z"/>
<path d="M780 603 c0 -5 28 -7 62 -5 107 5 117 9 26 11 -49 0 -88 -2 -88 -6z"/>
<path d="M1050 450 c-20 -6 -14 -8 25 -8 37 -1 45 2 30 8 -24 10 -23 10 -55 0z"/>
<path d="M1405 449 c-23 -5 -16 -7 28 -8 31 0 57 1 57 3 0 8 -56 11 -85 5z"/>
<path d="M1715 450 c-44 -6 -39 -7 35 -7 56 -1 76 2 60 7 -29 9 -28 9 -95 0z"/>
<path d="M2576 365 c-10 -14 -28 -31 -42 -37 -14 -6 -23 -17 -20 -24 7 -18
-64 -63 -123 -79 -28 -7 -54 -13 -56 -13 -3 -1 -31 -7 -63 -14 -42 -10 -147
-12 -412 -11 -228 2 -350 -1 -340 -7 9 -6 10 -10 3 -10 -6 0 -15 5 -18 10 -5
7 -11 8 -19 1 -6 -5 -52 -11 -101 -12 -50 -1 -142 -7 -205 -14 -63 -6 -182
-11 -265 -10 -159 1 -224 15 -320 67 -65 35 -125 106 -78 92 10 -3 1 4 -20 16
-20 11 -43 29 -50 40 -11 18 -37 28 -37 14 0 -3 19 -32 41 -65 62 -88 122
-128 253 -168 107 -33 205 -35 451 -11 161 16 332 24 640 30 508 10 613 23
711 91 48 33 125 119 118 131 -10 16 -32 8 -48 -17z"/>
<path d="M613 363 c59 -2 154 -2 210 0 56 1 8 3 -108 3 -115 0 -161 -2 -102
-3z"/>
<path d="M1703 363 c26 -2 67 -2 90 0 23 2 2 3 -48 3 -49 0 -68 -1 -42 -3z"/>
<path d="M1396 322 c-3 -6 29 -30 71 -56 l78 -45 12 22 c17 30 16 34 -7 40
-11 3 -20 12 -20 21 0 12 -11 16 -49 16 -27 0 -56 3 -64 6 -8 3 -18 1 -21 -4z"/>
<path d="M1915 322 c-10 -10 -35 -73 -35 -88 0 -10 14 -14 51 -14 37 0 50 4
46 13 -2 6 -10 29 -17 49 -14 37 -32 53 -45 40z"/>
</g>
</svg>
